# xmcd
#
# Track frame offsets:
# 150
# 16213
# 37449
# 53720
# 71628
# 88539
# 104720
# 124820
# 140516
# 160360
# 175317
# 195847
# 219284
# 234581
# 250757
# 262492
# 280107
# 298326
# 316697
# 332696
#
# Disc length: 4605 seconds
#
#
# Revision: 0
# Processed by: cddbd v1.5.2PL0 Copyright (c) Steve Scherf et al.
# Submitted via: FreeRIP 2.942 
#
DISCID=3311fb14
DTITLE=Coletânea - Só Modão
DYEAR=2006
DGENRE=Sertaneja
TTITLE0=Agita ai (Gino e Geno)
TTITLE1=Sera (Bruno e Marrone)
TTITLE2=Brega Demais (Rick e Renner)
TTITLE3=Enquanto o Sol Brilhar (Matogrosso e Mathias)
TTITLE4=Alô, meu povo (Guilherme e Santiago)
TTITLE5=Amor Desencontrado (Rionegro e Solimões)
TTITLE6=TEntei Te Esquecer (Nechivile)
TTITLE7=Se a casa cair (Teodoro e Sampaio)
TTITLE8=Desejo de Amar (Daniel)
TTITLE9=Coração (Guilherme e Santiago)
TTITLE10=Amor Perfeito (Gian e Geovani)
TTITLE11=Por te amar demais (Bruno e Marrone)
TTITLE12=Um minuto a mais (Roberta Miranda)
TTITLE13=To indo embora (Paullo e Paulino)
TTITLE14=Como um Beijo (Cesar Minotti e Fabiano)
TTITLE15=A decisão é sua (Marco Aurelio e Mathias)
TTITLE16=Quero dizer que Te amo (João Bosco e Vinicius)
TTITLE17=Duas pessoas nuas (Cezar e Paulinho)
TTITLE18=Ligação urbana (Bruno e Marrone)
TTITLE19=De bem com a vida (Rio Negro e Solimões )
EXTD=
EXTT0=
EXTT1=
EXTT2=
EXTT3=
EXTT4=
EXTT5=
EXTT6=
EXTT7=
EXTT8=
EXTT9=
EXTT10=
EXTT11=
EXTT12=
EXTT13=
EXTT14=
EXTT15=
EXTT16=
EXTT17=
EXTT18=
EXTT19=
PLAYORDER=
